<!DOCTYPE svg PUBLIC "-//W3C//DTD SVG 1.1//EN" "http://www.w3.org/Graphics/SVG/1.1/DTD/svg11.dtd">
<!-- Uploaded to: SVG Repo, www.svgrepo.com, Transformed by: SVG Repo Mixer Tools -->
<svg fill="#fd7e08" height="800px" width="800px" version="1.1" id="Layer_1" xmlns="http://www.w3.org/2000/svg" xmlns:xlink="http://www.w3.org/1999/xlink" viewBox="0 0 512 512" xml:space="preserve" stroke="#fd7e08">
<g id="SVGRepo_bgCarrier" stroke-width="0"/>
<g id="SVGRepo_tracerCarrier" stroke-linecap="round" stroke-linejoin="round"/>
<g id="SVGRepo_iconCarrier"> <g> <g> <path d="M317.141,40.157h-31.23V9.387c0-5.549-3.377-9.387-8.926-9.387h-50.196c-5.549,0-11.152,3.838-11.152,9.387v30.77h-29.005 c-5.549,0-11.152,3.838-11.152,9.387V99.74c0,5.549,5.603,10.691,11.152,10.691h29.005v29.466c0,5.549,5.603,10.691,11.152,10.691 h50.196c5.549,0,8.926-5.142,8.926-10.691v-29.466h31.23c5.549,0,8.926-5.142,8.926-10.691V49.544 C326.067,43.995,322.69,40.157,317.141,40.157z M305.989,90.353h-29.005c-5.549,0-11.152,3.838-11.152,9.387v30.77h-30.118V99.74 c0-5.549-3.378-9.387-8.926-9.387h-31.231V60.235h31.231c5.549,0,8.926-5.142,8.926-10.691V20.078h30.118v29.466 c0,5.549,5.603,10.691,11.152,10.691h29.005V90.353z"/> </g> </g> <g> <g> <path d="M390.048,431.196c29.245-30.615,87.174-97.963,86.029-152.044c-0.402-19.128-8.279-35.039-22.583-47.304 c-31.598-27.078-64.681-28.432-97.309-4.696v-37.059c0-5.549-3.378-9.387-8.926-9.387H166.553c-5.549,0-11.152,3.838-11.152,9.387 v38.147c-12.549-10.637-26.924-16.735-41.14-17.863c-19.137-1.608-37.909,5.696-56.301,21.471 c-14.314,12.265-21.635,28.176-22.037,47.304c-1.147,54.189,56.253,121.701,85.444,152.23 c-14.517,2.108-26.201,14.625-26.201,29.75v20.118c0,16.598,14.583,30.75,31.142,30.75h261.196 c16.559,0,28.917-14.152,28.917-30.75v-20.118C416.421,445.586,405.156,432.758,390.048,431.196z M56.131,279.047 c0.294-13.353,5.255-23.453,15.167-31.963c14.196-12.157,28.353-17.833,41.932-16.696c19.264,1.529,35.471,16.176,45.667,28.196 c2.725,3.206,6.62,4.402,10.561,2.922c3.951-1.451,6.022-5.216,6.022-9.422v-51.299h160.627v49.681 c0,4.186,3.145,7.922,7.066,9.402c3.892,1.461,8.601,0.363,11.365-2.794c27.843-31.833,57.012-35.206,86.443-9.99 c9.912,8.51,14.941,18.61,15.235,31.963c1.187,55.872-76.978,135.071-92.919,150.13h-16.039c-1.314,0-2.559,2.51-3.706,2.51 h-173.01c-1.226,0-2.569-2.51-3.99-2.51h-17.432C133.18,414.118,54.945,334.919,56.131,279.047z M387.504,491.922H126.308 c-5.49,0-11.064-5.142-11.064-10.672v-20.118c0-5.529,5.574-9.368,11.064-9.368h40.245h180.706h40.245 c5.49,0,8.838,3.838,8.838,9.368v20.118h0C396.342,486.779,392.994,491.922,387.504,491.922z"/> </g> </g> </g>
</svg>